<svg data-v-423bf9ae="" xmlns="http://www.w3.org/2000/svg" viewBox="0 0 336.2539692279063 163" class="iconAbove"><!----><!----><!----><g data-v-423bf9ae="" id="85cddd7f-c996-42c1-b767-ff402674e15b" fill="#000000" transform="matrix(6.349206477356088,0,0,6.349206477356088,-4.190477234130668,95.38094882497741)"><path d="M5.04 1.20L5.04 1.20L5.04 1.20Q5.53 1.20 5.98 1.28L5.98 1.28L5.98 1.28Q6.43 1.36 6.76 1.44L6.76 1.44L6.76 1.44Q7.15 1.54 7.48 1.67L7.48 1.67L7.48 3.18L7.48 3.18Q6.94 3.01 6.38 2.90L6.38 2.90L6.38 2.90Q5.82 2.79 5.30 2.79L5.30 2.79L5.30 2.79Q4.77 2.79 4.30 2.94L4.30 2.94L4.30 2.94Q3.82 3.09 3.47 3.46L3.47 3.46L3.47 3.46Q3.12 3.82 2.91 4.42L2.91 4.42L2.91 4.42Q2.70 5.01 2.70 5.92L2.70 5.92L2.70 5.92Q2.70 7.28 3.15 7.99L3.15 7.99L3.15 7.99Q3.60 8.69 4.29 8.94L4.29 8.94L4.29 8.94Q4.98 9.18 5.83 9.07L5.83 9.07L5.83 9.07Q6.68 8.96 7.48 8.69L7.48 8.69L7.48 10.15L7.48 10.15Q7.14 10.29 6.75 10.40L6.75 10.40L6.75 10.40Q6.41 10.50 5.97 10.58L5.97 10.58L5.97 10.58Q5.53 10.65 5.04 10.65L5.04 10.65L5.04 10.65Q4.59 10.65 4.09 10.57L4.09 10.57L4.09 10.57Q3.58 10.49 3.10 10.28L3.10 10.28L3.10 10.28Q2.62 10.08 2.18 9.73L2.18 9.73L2.18 9.73Q1.74 9.38 1.39 8.86L1.39 8.86L1.39 8.86Q1.05 8.33 0.85 7.60L0.85 7.60L0.85 7.60Q0.66 6.87 0.66 5.92L0.66 5.92L0.66 5.92Q0.66 4.97 0.85 4.25L0.85 4.25L0.85 4.25Q1.05 3.53 1.39 3.00L1.39 3.00L1.39 3.00Q1.74 2.48 2.18 2.13L2.18 2.13L2.18 2.13Q2.62 1.79 3.10 1.58L3.10 1.58L3.10 1.58Q3.58 1.37 4.09 1.29L4.09 1.29L4.09 1.29Q4.59 1.20 5.04 1.20ZM11.51 3.12L11.51 3.12L11.51 3.12Q11.97 3.12 12.50 3.27L12.50 3.27L12.50 3.27Q13.03 3.42 13.50 3.75L13.50 3.75L13.50 3.75Q13.96 4.07 14.25 4.59L14.25 4.59L14.25 4.59Q14.55 5.11 14.53 5.85L14.53 5.85L14.53 10.50L13.16 10.50L13.16 10.50Q13.16 10.50 13.12 10.33L13.12 10.33L13.12 10.33Q13.08 10.16 13.03 9.95L13.03 9.95L13.03 9.95Q12.98 9.74 12.94 9.58L12.94 9.58L12.94 9.58Q12.89 9.42 12.89 9.44L12.89 9.44L12.89 9.44Q12.70 9.79 12.38 10.05L12.38 10.05L12.38 10.05Q12.10 10.29 11.65 10.47L11.65 10.47L11.65 10.47Q11.21 10.65 10.57 10.65L10.57 10.65L10.57 10.65Q10.12 10.65 9.69 10.52L9.69 10.52L9.69 10.52Q9.25 10.39 8.91 10.13L8.91 10.13L8.91 10.13Q8.57 9.87 8.35 9.48L8.35 9.48L8.35 9.48Q8.13 9.09 8.12 8.57L8.12 8.57L8.12 8.57Q8.09 8.02 8.27 7.59L8.27 7.59L8.27 7.59Q8.44 7.17 8.77 6.86L8.77 6.86L8.77 6.86Q9.10 6.55 9.56 6.36L9.56 6.36L9.56 6.36Q10.02 6.17 10.57 6.10L10.57 6.10L10.57 6.10Q11.09 6.03 11.70 6.03L11.70 6.03L11.70 6.03Q12.32 6.03 12.81 6.06L12.81 6.06L12.81 5.84L12.81 5.84Q12.81 5.24 12.54 4.93L12.54 4.93L12.54 4.93Q12.28 4.63 11.88 4.54L11.88 4.54L11.88 4.54Q11.48 4.45 11.00 4.52L11.00 4.52L11.00 4.52Q10.53 4.59 10.09 4.72L10.09 4.72L10.09 4.72Q9.66 4.86 9.33 5.00L9.33 5.00L9.33 5.00Q9.00 5.15 8.92 5.22L8.92 5.22L8.92 3.81L8.92 3.81Q8.93 3.79 9.17 3.69L9.17 3.69L9.17 3.69Q9.41 3.58 9.77 3.46L9.77 3.46L9.77 3.46Q10.14 3.33 10.59 3.23L10.59 3.23L10.59 3.23Q11.05 3.12 11.51 3.12ZM12.40 8.68L12.40 8.68L12.40 8.68Q12.64 8.37 12.72 7.99L12.72 7.99L12.72 7.99Q12.80 7.62 12.80 7.20L12.80 7.20L11.98 7.20L11.98 7.20Q11.66 7.20 11.30 7.24L11.30 7.24L11.30 7.24Q10.93 7.28 10.63 7.41L10.63 7.41L10.63 7.41Q10.32 7.53 10.11 7.78L10.11 7.78L10.11 7.78Q9.90 8.02 9.90 8.44L9.90 8.44L9.90 8.44Q9.90 8.90 10.24 9.11L10.24 9.11L10.24 9.11Q10.58 9.32 11.09 9.32L11.09 9.32L11.09 9.32Q11.52 9.32 11.85 9.15L11.85 9.15L11.85 9.15Q12.18 8.97 12.40 8.68ZM20.72 3.18L20.72 5.10L20.72 5.10Q20.40 5.03 20.14 5.02L20.14 5.02L20.14 5.02Q19.88 5.01 19.66 5.03L19.66 5.03L19.66 5.03Q19.21 5.05 18.92 5.22L18.92 5.22L18.92 5.22Q18.63 5.39 18.48 5.66L18.48 5.66L18.48 5.66Q18.33 5.94 18.27 6.28L18.27 6.28L18.27 6.28Q18.21 6.62 18.21 6.99L18.21 6.99L18.21 10.50L16.32 10.50L16.32 3.36L17.71 3.36L18.00 4.93L18.00 4.93Q18.00 4.93 18.04 4.77L18.04 4.77L18.04 4.77Q18.07 4.61 18.18 4.38L18.18 4.38L18.18 4.38Q18.28 4.14 18.48 3.88L18.48 3.88L18.48 3.88Q18.68 3.63 18.98 3.43L18.98 3.43L18.98 3.43Q19.28 3.23 19.70 3.15L19.70 3.15L19.70 3.15Q20.13 3.07 20.72 3.18L20.72 3.18ZM26.68 3.98L26.05 5.39L26.05 5.39Q25.58 5.03 25.02 4.84L25.02 4.84L25.02 4.84Q24.46 4.66 24.08 4.66L24.08 4.66L24.08 4.66Q23.72 4.66 23.51 4.79L23.51 4.79L23.51 4.79Q23.30 4.91 23.30 5.24L23.30 5.24L23.30 5.24Q23.30 5.52 23.56 5.68L23.56 5.68L23.56 5.68Q23.83 5.85 24.22 6.00L24.22 6.00L24.22 6.00Q24.61 6.15 25.07 6.31L25.07 6.31L25.07 6.31Q25.54 6.47 25.93 6.73L25.93 6.73L25.93 6.73Q26.32 6.99 26.59 7.38L26.59 7.38L26.59 7.38Q26.85 7.78 26.85 8.40L26.85 8.40L26.85 8.40Q26.85 8.99 26.64 9.41L26.64 9.41L26.64 9.41Q26.42 9.84 26.06 10.12L26.06 10.12L26.06 10.12Q25.70 10.39 25.24 10.52L25.24 10.52L25.24 10.52Q24.78 10.65 24.29 10.65L24.29 10.65L24.29 10.65Q23.94 10.65 23.54 10.58L23.54 10.58L23.54 10.58Q23.14 10.50 22.76 10.34L22.76 10.34L22.76 10.34Q22.37 10.18 22.02 9.95L22.02 9.95L22.02 9.95Q21.66 9.72 21.39 9.42L21.39 9.42L22.01 8.05L22.01 8.05Q22.50 8.58 23.06 8.86L23.06 8.86L23.06 8.86Q23.62 9.13 24.08 9.13L24.08 9.13L24.08 9.13Q24.47 9.13 24.84 8.99L24.84 8.99L24.84 8.99Q25.20 8.85 25.21 8.51L25.21 8.51L25.21 8.51Q25.23 8.19 24.97 7.99L24.97 7.99L24.97 7.99Q24.71 7.78 24.32 7.63L24.32 7.63L24.32 7.63Q23.93 7.48 23.46 7.31L23.46 7.31L23.46 7.31Q23.00 7.15 22.61 6.90L22.61 6.90L22.61 6.90Q22.22 6.65 21.95 6.27L21.95 6.27L21.95 6.27Q21.69 5.89 21.70 5.29L21.70 5.29L21.70 5.29Q21.70 4.72 21.90 4.30L21.90 4.30L21.90 4.30Q22.11 3.89 22.44 3.63L22.44 3.63L22.44 3.63Q22.78 3.37 23.22 3.25L23.22 3.25L23.22 3.25Q23.66 3.12 24.14 3.12L24.14 3.12L24.14 3.12Q24.42 3.12 24.75 3.18L24.75 3.18L24.75 3.18Q25.09 3.23 25.43 3.35L25.43 3.35L25.43 3.35Q25.77 3.46 26.10 3.61L26.10 3.61L26.10 3.61Q26.43 3.77 26.68 3.98L26.68 3.98ZM30.46 8.93L34.85 8.93L34.85 10.50L28.34 10.50L28.34 9.55L28.34 9.55Q28.34 8.79 28.60 8.22L28.60 8.22L28.60 8.22Q28.87 7.66 29.40 7.13L29.40 7.13L29.40 7.14L29.40 7.14Q29.81 6.73 30.33 6.41L30.33 6.41L30.33 6.41Q30.86 6.08 31.33 5.82L31.33 5.82L31.33 5.82Q32.10 5.39 32.42 5.01L32.42 5.01L32.42 5.01Q32.73 4.63 32.73 4.13L32.73 4.13L32.73 4.13Q32.73 3.57 32.35 3.25L32.35 3.25L32.35 3.25Q31.96 2.93 31.39 2.93L31.39 2.93L31.39 2.93Q30.94 2.93 30.65 3.07L30.65 3.07L30.65 3.07Q30.35 3.22 30.18 3.39L30.18 3.39L30.18 3.39Q30.00 3.57 29.93 3.71L29.93 3.71L29.93 3.71Q29.86 3.85 29.86 3.85L29.86 3.85L28.24 3.28L28.24 3.28Q28.43 2.81 28.78 2.43L28.78 2.43L28.78 2.43Q29.12 2.04 29.55 1.77L29.55 1.77L29.55 1.77Q29.99 1.50 30.48 1.35L30.48 1.35L30.48 1.35Q30.98 1.20 31.51 1.20L31.51 1.20L31.51 1.20Q32.14 1.20 32.73 1.40L32.73 1.40L32.73 1.40Q33.31 1.60 33.76 1.97L33.76 1.97L33.76 1.97Q34.22 2.35 34.49 2.90L34.49 2.90L34.49 2.90Q34.76 3.44 34.76 4.13L34.76 4.13L34.76 4.13Q34.76 4.72 34.51 5.24L34.51 5.24L34.51 5.24Q34.26 5.75 33.81 6.19L33.81 6.19L33.81 6.19Q33.40 6.57 32.91 6.83L32.91 6.83L32.91 6.83Q32.42 7.10 31.95 7.38L31.95 7.38L31.95 7.38Q31.49 7.66 31.09 8.02L31.09 8.02L31.09 8.02Q30.69 8.37 30.46 8.93L30.46 8.93ZM40.95 6.85L40.95 5.28L44.63 5.28L44.63 9.84L44.63 9.84Q44.30 10.02 43.83 10.17L43.83 10.17L43.83 10.17Q43.37 10.32 42.88 10.42L42.88 10.42L42.88 10.42Q42.38 10.53 41.89 10.59L41.89 10.59L41.89 10.59Q41.41 10.65 41.05 10.65L41.05 10.65L41.05 10.65Q40.38 10.65 39.61 10.45L39.61 10.45L39.61 10.45Q38.85 10.25 38.20 9.72L38.20 9.72L38.20 9.72Q37.55 9.20 37.11 8.28L37.11 8.28L37.11 8.28Q36.68 7.36 36.68 5.92L36.68 5.92L36.68 5.92Q36.68 4.47 37.10 3.54L37.10 3.54L37.10 3.54Q37.52 2.62 38.21 2.10L38.21 2.10L38.21 2.10Q38.89 1.58 39.78 1.39L39.78 1.39L39.78 1.39Q40.67 1.20 41.62 1.20L41.62 1.20L41.62 1.20Q42.06 1.20 42.54 1.27L42.54 1.27L42.54 1.27Q43.02 1.33 43.42 1.40L43.42 1.40L43.42 1.40Q43.82 1.47 44.08 1.54L44.08 1.54L44.08 1.54Q44.34 1.61 44.34 1.61L44.34 1.61L44.34 3.19L44.34 3.19Q44.34 3.19 44.10 3.13L44.10 3.13L44.10 3.13Q43.86 3.07 43.47 3.00L43.47 3.00L43.47 3.00Q43.08 2.93 42.59 2.86L42.59 2.86L42.59 2.86Q42.11 2.80 41.62 2.80L41.62 2.80L41.62 2.80Q40.94 2.80 40.40 2.94L40.40 2.94L40.40 2.94Q39.86 3.08 39.49 3.44L39.49 3.44L39.49 3.44Q39.12 3.79 38.92 4.40L38.92 4.40L38.92 4.40Q38.72 5.00 38.72 5.92L38.72 5.92L38.72 5.92Q38.72 6.75 38.89 7.33L38.89 7.33L38.89 7.33Q39.06 7.91 39.37 8.27L39.37 8.27L39.37 8.27Q39.68 8.64 40.10 8.81L40.10 8.81L40.10 8.81Q40.53 8.99 41.05 8.99L41.05 8.99L41.05 8.99Q41.58 8.99 41.92 8.94L41.92 8.94L41.92 8.94Q42.25 8.89 42.45 8.82L42.45 8.82L42.45 8.82Q42.69 8.75 42.80 8.65L42.80 8.65L42.80 6.85L40.95 6.85ZM49.83 3.12L49.83 3.12L49.83 3.12Q50.39 3.12 51.04 3.29L51.04 3.29L51.04 3.29Q51.70 3.46 52.28 3.88L52.28 3.88L52.28 3.88Q52.85 4.30 53.23 5.03L53.23 5.03L53.23 5.03Q53.62 5.75 53.62 6.89L53.62 6.89L53.62 6.89Q53.62 8.02 53.23 8.75L53.23 8.75L53.23 8.75Q52.85 9.48 52.28 9.90L52.28 9.90L52.28 9.90Q51.70 10.32 51.04 10.49L51.04 10.49L51.04 10.49Q50.39 10.65 49.83 10.65L49.83 10.65L49.83 10.65Q49.27 10.65 48.61 10.49L48.61 10.49L48.61 10.49Q47.95 10.32 47.38 9.90L47.38 9.90L47.38 9.90Q46.82 9.48 46.44 8.75L46.44 8.75L46.44 8.75Q46.06 8.02 46.06 6.89L46.06 6.89L46.06 6.89Q46.06 5.75 46.44 5.03L46.44 5.03L46.44 5.03Q46.82 4.30 47.38 3.88L47.38 3.88L47.38 3.88Q47.95 3.46 48.61 3.29L48.61 3.29L48.61 3.29Q49.27 3.12 49.83 3.12ZM49.83 9.25L49.83 9.25L49.83 9.25Q50.61 9.25 51.13 8.64L51.13 8.64L51.13 8.64Q51.66 8.02 51.66 6.89L51.66 6.89L51.66 6.89Q51.66 5.75 51.13 5.14L51.13 5.14L51.13 5.14Q50.61 4.54 49.83 4.54L49.83 4.54L49.83 4.54Q49.07 4.54 48.55 5.14L48.55 5.14L48.55 5.14Q48.03 5.75 48.03 6.89L48.03 6.89L48.03 6.89Q48.03 7.45 48.17 7.89L48.17 7.89L48.17 7.89Q48.31 8.33 48.55 8.63L48.55 8.63L48.55 8.63Q48.79 8.93 49.12 9.09L49.12 9.09L49.12 9.09Q49.45 9.25 49.83 9.25Z"></path></g><defs data-v-423bf9ae=""><linearGradient data-v-423bf9ae="" gradientTransform="rotate(25)" id="4e2c5f38-ce97-4ab5-8f0c-370923b831f5" x1="0%" y1="0%" x2="100%" y2="0%"><stop data-v-423bf9ae="" offset="0%" style="stop-color: rgb(0, 102, 120); stop-opacity: 1;"></stop><stop data-v-423bf9ae="" offset="100%" style="stop-color: rgb(79, 168, 255); stop-opacity: 1;"></stop></linearGradient></defs><g data-v-423bf9ae="" id="74fb5706-91cc-44c0-ac40-9f93617ddec4" transform="matrix(1.0759332036477358,0,0,1.0759332036477358,115.20333262271195,0)" stroke="none" fill="url(#4e2c5f38-ce97-4ab5-8f0c-370923b831f5)"><path d="M90.925 28.696L82.728 7.529C81.195 3.477 77.845.029 71.505 0H28.427c-6.311.029-9.661 3.477-11.222 7.529L9.006 28.696C5.751 29.116-.01 32.941 0 40.187v26.951h7.999v8.603c-.02 10.606 14.989 10.48 14.985 0v-8.603h53.964v8.603c.033 10.48 15.042 10.606 15.052 0v-8.603h8V40.187c-.025-7.246-5.79-11.071-9.075-11.491zM15.727 50.874c-3.834.011-6.938-3.187-6.922-7.12-.016-3.96 3.088-7.161 6.922-7.128 3.822-.033 6.926 3.168 6.921 7.128.005 3.933-3.1 7.13-6.921 7.12zM50 28.497H17.541l6.182-16.668c.746-2.366 1.904-4.059 4.639-4.1H71.64c2.693.041 3.854 1.733 4.636 4.1l6.183 16.668H50zm34.274 22.377c-3.861.011-6.967-3.187-6.988-7.12.021-3.96 3.127-7.161 6.988-7.128 3.795-.033 6.898 3.168 6.922 7.128-.024 3.933-3.127 7.13-6.922 7.12z"></path></g><!----></svg>